<svg width="35" height="34" viewBox="0 0 35 34" fill="none" xmlns="http://www.w3.org/2000/svg">
<rect y="0.795349" width="32.4093" height="32.4093" rx="5.76166" fill="#0072FF"/>
<path d="M27.3679 5.11658H32.0492C33.2425 5.11658 34.2099 6.08392 34.2099 7.2772V10.158C34.2099 11.3513 33.2425 12.3186 32.0492 12.3186H27.3679V5.11658Z" fill="#FF4646"/>
<path d="M27.3679 13.0389H32.0492C33.2425 13.0389 34.2099 14.0062 34.2099 15.1995V18.0803C34.2099 19.2736 33.2425 20.241 32.0492 20.241H27.3679V13.0389Z" fill="#FFCD00"/>
<path d="M27.3679 20.9612H32.0492C33.2425 20.9612 34.2099 21.9285 34.2099 23.1218V26.0026C34.2099 27.1959 33.2425 28.1633 32.0492 28.1633H27.3679V20.9612Z" fill="#00CDC7"/>
<rect y="0.795349" width="26.2876" height="32.4093" rx="5.76166" fill="white"/>
<circle cx="8.05609" cy="9.93176" r="1.21411" fill="#002AC9"/>
<circle cx="18.2315" cy="9.93176" r="1.21411" fill="#002AC9"/>
<path d="M7.65143 14.3835C7.65143 14.3835 7.57012 19.2399 13.3173 19.2399C19.0644 19.2399 18.9831 14.3835 18.9831 14.3835" stroke="#002AC9" stroke-width="1.61881" stroke-linecap="round"/>
</svg>
