<svg width="89" height="30" viewBox="0 0 89 30" fill="none" xmlns="http://www.w3.org/2000/svg">
<path d="M19.8912 19.3446C19.8912 24.7014 15.5486 29.044 10.1917 29.044C4.83482 29.044 0.492218 24.7014 0.492218 19.3446C0.492218 14.5923 0.49222 2.97669 0.49222 2.97669C0.49222 2.97669 0.896363 1.36011 2.91709 1.36011C4.93781 1.36011 5.34196 2.97669 5.34196 2.97669V19.3446C5.34196 22.023 7.51326 24.1943 10.1917 24.1943C12.8701 24.1943 15.0414 22.023 15.0414 19.3446C15.0414 19.3446 15.4456 17.5259 17.4663 17.5259C19.487 17.5259 19.8912 19.3446 19.8912 19.3446Z" fill="white"/>
<path d="M0.492206 9.84717C5.24452 9.84717 13.2228 9.84717 13.2228 9.84717C13.2228 9.84717 14.8394 10.2513 14.8394 12.272C14.8394 14.2928 13.2228 14.6969 13.2228 14.6969L0.492206 14.6969L0.492206 12.272L0.492206 9.84717Z" fill="white"/>
<path d="M31.6915 9.44299C36.4373 10.075 40.0984 14.1382 40.0984 19.0568C40.0984 24.4137 35.7558 28.7563 30.3989 28.7563C25.0421 28.7563 20.6995 24.4137 20.6995 19.0568C20.6995 14.3045 24.1172 10.3507 28.6288 9.51877C26.9637 10.8575 26.5596 11.7822 26.1554 12.8782C25.4134 14.8906 25.3471 16.7176 25.5492 19.0568C25.7513 21.3961 27.7205 23.9066 30.3989 23.9066C33.0774 23.9066 35.2487 21.7353 35.2487 19.0568C35.2487 16.3784 33.0774 14.2071 30.3989 14.2071C29.3232 14.2071 28.1761 14.2071 27.1658 14.8133C27.1658 13.8029 27.3679 12.5905 27.772 11.7822C28.5013 10.3237 29.5907 9.51877 31.6915 9.44299Z" fill="white"/>
<path d="M55.4559 19.3446C55.4559 14.5923 55.4559 2.57257 55.4559 2.57257C55.4559 2.57257 55.8601 0.955994 57.8808 0.955994C59.9015 0.955994 60.3057 2.57257 60.3057 2.57257V19.3446H57.8808H55.4559Z" fill="white"/>
<path fill-rule="evenodd" clip-rule="evenodd" d="M50.6062 9.44299C55.9631 9.44299 60.3057 13.7856 60.3057 19.1425C60.3057 24.4994 55.9631 28.842 50.6062 28.842C45.2493 28.842 40.9067 24.4994 40.9067 19.1425C40.9067 13.7856 45.2493 9.44299 50.6062 9.44299ZM50.6062 14.2927C47.9278 14.2927 45.7565 16.464 45.7565 19.1425C45.7565 21.8209 47.9278 23.9922 50.6062 23.9922C53.2847 23.9922 55.456 21.8209 55.456 19.1425C55.456 16.464 53.2847 14.2927 50.6062 14.2927Z" fill="white"/>
<path d="M72.106 9.44299C76.8518 10.075 80.513 14.1382 80.513 19.0568C80.513 24.4137 76.1704 28.7563 70.8135 28.7563C65.4566 28.7563 61.114 24.4137 61.114 19.0568C61.114 14.3045 64.5318 10.3507 69.0434 9.51877C67.3783 10.8575 66.9741 11.7822 66.57 12.8782C65.8279 14.8906 65.7617 16.7176 65.9638 19.0568C66.1658 21.3961 68.1351 23.9066 70.8135 23.9066C73.4919 23.9066 75.6632 21.7353 75.6632 19.0568C75.6632 16.3784 73.4919 14.2071 70.8135 14.2071C69.7378 14.2071 68.5907 14.2071 67.5803 14.8133C67.5803 13.8029 67.7824 12.5905 68.1866 11.7822C68.9158 10.3237 70.0052 9.51877 72.106 9.44299Z" fill="white"/>
<circle cx="85.9689" cy="25.8109" r="3.03109" fill="white"/>
</svg>
